<?xml version="1.0" encoding="UTF-8"?>
<svg id="Capa_1" data-name="Capa 1" xmlns="http://www.w3.org/2000/svg" viewBox="0 0 36 6.5">
  <defs>
    <style>
      .cls-1 {
        fill: #f67011;
      }

      .cls-2 {
        fill: #fbfbfb;
      }
    </style>
  </defs>
  <g>
    <path class="cls-1" d="M4.09,5.31c.06,0,.11-.05.14-.1l.28.1s0,.04,0,.06c.01.1.11.17.21.16.1-.01.17-.11.16-.21-.01-.1-.11-.17-.21-.16-.06,0-.11.05-.14.1l-.28-.1s0-.04,0-.06c0-.07-.06-.12-.12-.15l.14-.62s.02,0,.02,0c.1-.01.17-.11.16-.21-.01-.1-.11-.17-.21-.16-.03,0-.06.02-.09.04l-.21-.21s.04-.08.03-.13c-.01-.08-.07-.13-.14-.15v-.22s.03,0,.04,0c.2-.03.34-.21.31-.41-.03-.2-.21-.34-.41-.31-.1.01-.19.07-.25.15l-.4-.24s.02-.06.01-.09c-.01-.09-.1-.16-.19-.14s-.16.1-.14.19.1.16.19.14c.04,0,.08-.03.1-.06l.4.24s-.04.1-.04.16l-.66.03s0,0,0,0c-.03-.2-.2-.34-.39-.34l-.05-.74c.08-.02.14-.1.12-.18,0-.05-.03-.09-.07-.11l.4-.76s.09.02.13.02c.14-.02.25-.15.23-.3-.02-.14-.15-.25-.3-.23s-.25.15-.23.3c.01.08.05.14.12.18l-.4.76s-.04,0-.07,0c-.09.01-.15.09-.14.18.01.08.07.13.15.14l.05.74s0,0,0,0c-.16.02-.29.14-.33.28l-.51-.11s0-.03,0-.05c-.02-.13-.13-.22-.26-.2-.13.02-.22.13-.2.26,0,.07.05.12.1.16l-.19.34s-.06-.02-.09-.01c-.02,0-.05.01-.07.02l-.28-.52s.06-.1.05-.16c0-.06-.05-.12-.1-.15l.15-.38s.07.02.11.02c.11-.01.19-.11.17-.22,0-.05-.03-.09-.06-.12l.21-.23c.05.05.12.08.19.07.04,0,.07-.02.1-.04l.28.43s-.07.1-.06.16c.01.1.11.17.21.16.1-.01.17-.11.16-.21,0-.07-.06-.13-.12-.15l.18-.99s.05.01.08,0c.1-.01.16-.1.15-.2-.01-.1-.1-.16-.2-.15-.1.01-.16.1-.15.2,0,.05.03.09.07.12l-.18,1.01s-.02,0-.03,0c-.02,0-.04,0-.05.02l-.29-.43s.06-.11.05-.18c-.02-.12-.13-.21-.25-.19-.12.02-.21.13-.19.25,0,.03.01.06.03.08l-.22.25s-.08-.03-.12-.02c-.11.01-.19.11-.17.22,0,.05.03.1.07.13l-.16.38s-.05,0-.08,0c-.11.01-.19.12-.17.22,0,.07.06.13.12.16l-.15.59s-.02,0-.02,0c-.08.01-.14.09-.13.17.01.08.09.14.17.13,0,0,.01,0,.02,0l.13.35c-.06.03-.1.1-.09.17.01.09.1.16.19.15.01,0,.03,0,.04,0l.1.17s-.06.08-.05.13c.01.08.09.14.17.13.03,0,.06-.02.08-.04l.26.2s-.02.06-.02.09c.01.08.09.14.17.13s.14-.09.13-.17c0-.04-.03-.08-.06-.1l.06-.11s.05.01.08,0c.08-.01.14-.09.13-.17-.01-.08-.09-.14-.17-.13-.08.01-.14.09-.13.17,0,.04.02.07.05.09l-.06.12s-.04,0-.06,0c-.03,0-.06.02-.08.04l-.26-.2s.02-.06.02-.09c-.01-.08-.09-.14-.17-.13-.01,0-.02,0-.03,0l-.1-.17s.07-.09.06-.15c-.01-.09-.1-.16-.19-.15,0,0,0,0,0,0l-.13-.35s.07-.09.06-.15c0-.06-.05-.1-.1-.12l.15-.59s.03,0,.05,0c.02,0,.05-.01.07-.02l.28.52s-.05.09-.05.15c.01.1.1.17.2.17l.07.37c-.07.02-.11.09-.1.17.01.08.09.14.17.13.08-.01.14-.09.13-.17,0-.02-.01-.05-.02-.06l.24-.23s.07.04.12.03c0,0,.02,0,.03,0l.25.49s-.06.08-.06.14c0,.05.03.08.07.11l-.08.2s-.02,0-.03,0c-.07,0-.11.07-.1.14,0,.07.07.11.14.1.05,0,.09-.04.1-.09l.36.02s0,0,0,0c.01.08.09.14.17.13.07,0,.12-.06.13-.12h.27c.01.07.08.12.16.11.08-.01.13-.08.12-.16,0,0,0,0,0-.01l.32-.14c.04.06.11.1.18.09.1-.01.17-.11.16-.21-.01-.1-.11-.17-.21-.16-.1.01-.17.11-.16.21,0,0,0,.02,0,.02l-.32.14s-.08-.07-.14-.06c-.06,0-.11.06-.12.11h-.27c-.01-.08-.09-.13-.17-.12-.06,0-.11.05-.13.11l-.36-.02s-.03-.06-.05-.08l.08-.2s.03,0,.05,0c.08-.01.14-.08.13-.17s-.08-.14-.17-.13c0,0-.02,0-.02,0l-.25-.49s.04-.04.05-.06l.38.15s-.03.08-.02.12c.01.11.11.18.22.17,0,0,0,0,.01,0l.05.18s-.07.07-.06.12c0,.07.07.11.14.1.06,0,.11-.06.11-.12l.2-.04c.02.06.08.09.15.09.08-.01.13-.08.12-.16,0-.04-.03-.07-.05-.09l.15-.29s.05.01.08,0c.1-.01.17-.11.16-.21l.36-.1c.03.08.1.12.19.11.03,0,.06-.02.08-.03l.21.21s-.04.09-.04.14c.01.07.06.13.13.15l-.14.62s-.03,0-.04,0c-.1.01-.17.11-.16.21.01.1.11.17.21.16ZM2.84,4.31s-.04,0-.06,0c-.07,0-.13.07-.12.15l-.2.04s-.07-.07-.12-.07l-.05-.19c.07-.04.12-.11.1-.2-.01-.11-.11-.18-.22-.17-.05,0-.08.03-.11.06l-.4-.16s0-.02,0-.04c-.01-.09-.09-.15-.18-.14-.09.01-.15.09-.14.18,0,.02.01.05.03.07l-.24.23s-.06-.03-.09-.03l-.07-.38c.09-.03.15-.12.13-.21,0-.05-.04-.1-.08-.13l.19-.34s.08.02.12.02c.09-.01.16-.07.19-.16l.51.11s0,.07,0,.11c.03.22.23.37.44.34.2-.03.34-.19.34-.38l.66-.03s0,0,0,0c.02.17.16.29.32.31v.22s0,0,0,0c-.09.01-.15.09-.15.18l-.36.1c-.03-.07-.11-.12-.19-.11-.1.01-.17.11-.16.21,0,.05.04.1.08.13l-.15.29Z"/>
    <path class="cls-2" d="M7.47,3.35c-.01-.09-.09-.16-.18-.16l-.07-.56c.08-.02.14-.1.12-.19-.01-.09-.1-.16-.19-.15-.08.01-.14.07-.15.14h-.53c-.01-.1-.11-.17-.21-.16,0,0,0,0,0,0l-.1-.35c.07-.03.12-.11.11-.19l.25-.06c.02.13.14.22.28.2.14-.02.23-.14.21-.28s-.14-.23-.28-.21c-.04,0-.07.02-.11.04l-.41-.37c.05-.06.07-.14.06-.22-.02-.16-.16-.28-.32-.26-.09.01-.17.07-.21.16l-.38-.21s.01-.06.01-.09c-.01-.1-.1-.17-.2-.16s-.17.1-.16.2.1.17.2.16c.05,0,.09-.03.12-.07l.39.22s-.01.08,0,.12c.02.16.16.28.32.26.06,0,.11-.03.14-.07l.4.36s-.07.1-.07.16l-.25.06c-.03-.08-.11-.12-.19-.11-.1.01-.17.11-.16.21,0,.04.02.08.05.1l-.35.87s-.04,0-.07,0c-.01,0-.02,0-.03,0l-.13-.27c.07-.04.11-.13.1-.21-.02-.12-.13-.2-.25-.19-.03,0-.06.01-.08.03l-.16-.21s.03-.05.02-.08c0,0,0,0,0,0l.4-.17c.04.06.11.1.18.09.1-.01.17-.11.16-.21s-.11-.17-.21-.16c-.07,0-.12.05-.14.11l-.37-.1s.05-.1.04-.17c-.02-.13-.14-.22-.26-.2-.03,0-.06.01-.09.03l-.24-.49c.07-.04.1-.12.09-.2-.02-.11-.12-.19-.23-.18-.11.02-.19.12-.18.23.02.11.12.19.23.18.01,0,.03,0,.04,0l.24.5c-.05.05-.08.12-.07.2.02.13.14.22.26.2.05,0,.09-.03.12-.05l.39.11s0,.03,0,.05c0,0,0,.02,0,.02l-.4.17s-.06-.04-.1-.04c-.06,0-.1.06-.09.12s.06.1.12.09c0,0,.02,0,.03,0l.16.21s-.07.11-.06.19c.02.12.13.2.25.19.01,0,.03,0,.04-.01l.13.27s-.06.06-.07.09l-.46-.08s0-.02,0-.03c-.01-.1-.1-.17-.2-.16l-.3-.36s.05-.09.04-.14c-.01-.09-.09-.16-.18-.15l-.05-.25c.09-.03.15-.12.13-.21-.01-.11-.11-.18-.22-.17-.03,0-.06.02-.09.04l-.21-.21s.04-.08.03-.13c-.01-.1-.1-.17-.2-.15-.1.01-.17.1-.15.2,0,.05.03.09.07.12l-.15.27s-.09-.02-.14-.01c-.05,0-.09.02-.13.05l-.09-.13s.06-.09.05-.15c0-.03-.02-.06-.03-.08l.55-.55s.06.02.09.01c.1-.01.16-.1.15-.2s-.1-.16-.2-.15c-.1.01-.16.1-.15.2,0,.05.03.08.06.11l-.55.54s-.08-.04-.13-.03c-.1.01-.17.1-.15.2.01.1.1.17.2.15.02,0,.04,0,.06-.02l.09.13c-.06.06-.1.15-.08.25.02.16.17.28.33.25.16-.02.28-.17.25-.33-.01-.1-.07-.18-.15-.22l.15-.27s.06.01.09,0c.03,0,.06-.02.08-.03l.21.21s-.05.09-.04.15c.01.1.1.17.2.17l.05.25c-.08.03-.13.11-.12.19.01.1.1.17.2.15.03,0,.05-.01.07-.02l.29.34c-.07.03-.12.11-.11.19.01.1.11.17.21.16.02,0,.03,0,.05-.01l.08.4c-.08.05-.13.14-.12.23.02.13.13.22.26.2,0,0,0,0,0,0l.06.14c-.06.04-.1.11-.09.18,0,.04.03.08.06.11l-.18.27s-.07-.02-.11-.02c-.1.01-.17.11-.16.21.01.1.11.17.21.16.07,0,.13-.06.15-.13l.42.07c.02.08.09.14.17.14l-.1.29s-.04,0-.06,0c-.1.01-.17.11-.16.21.01.08.07.14.15.16l-.02.41s0,0,0,0c-.1.01-.17.11-.16.21s.11.17.21.16c.1-.01.17-.11.16-.21-.01-.08-.07-.14-.15-.16l.02-.41s0,0,0,0c.1-.01.17-.11.16-.21,0-.06-.05-.11-.1-.14l.1-.31c.09-.02.15-.11.14-.2-.01-.1-.11-.17-.21-.16-.09.01-.15.08-.16.17l-.41-.07s0-.02,0-.03c0-.04-.03-.08-.06-.11l.18-.27s.07.02.11.02c.1-.01.17-.11.16-.21-.01-.1-.11-.17-.21-.16,0,0-.02,0-.02,0l-.06-.13c.1-.04.16-.14.15-.25-.02-.13-.13-.22-.26-.2-.01,0-.02,0-.03,0l-.08-.41s.05-.05.06-.08l.46.08s0,.02,0,.03c.01.1.1.17.2.16l.11.45c-.08.03-.13.11-.12.2.01.1.11.17.21.16.1-.01.17-.11.16-.21,0-.02,0-.04-.02-.06l.31-.22s.08.06.13.07l-.04.43s0,0-.01,0c-.1.01-.17.11-.16.21s.11.17.21.16c.02,0,.03,0,.05-.01l.23.26s-.02.05-.02.08c0,0,0,0,0,0l-.23.1c-.04-.06-.11-.1-.18-.09-.1.01-.17.11-.16.21.01.07.06.13.13.15l-.04.27s0,0,0,0c-.06,0-.1.06-.1.12s.06.1.12.1c.06,0,.1-.06.1-.12,0-.04-.03-.07-.07-.09l.04-.27s.02,0,.02,0c.1-.01.17-.11.16-.21,0,0,0-.02,0-.03l.23-.1s.06.05.1.04c.06,0,.1-.06.1-.12,0-.02-.01-.04-.03-.06l.22-.3s.07.03.11.02c.1-.01.17-.11.16-.21,0-.07-.05-.12-.11-.15l.09-.36s.03,0,.04,0c.1-.01.17-.11.16-.21ZM7.13,3.9s-.03,0-.04,0c-.1.01-.17.11-.16.21,0,.04.03.08.05.11l-.22.3s-.04-.01-.06,0c0,0-.01,0-.02,0l-.22-.26s.06-.1.05-.15c-.01-.08-.07-.14-.14-.16l.04-.43s.02,0,.02,0c.13-.02.22-.13.2-.26-.02-.13-.13-.22-.26-.2s-.22.13-.2.26c0,.03.01.06.03.08l-.31.22s-.09-.06-.15-.06l-.11-.45c.08-.03.13-.11.12-.2,0-.06-.04-.11-.09-.14l.34-.85s.07.03.11.02c0,0,0,0,0,0l.1.35c-.07.03-.12.11-.11.19.01.1.11.17.21.16.08-.01.15-.08.16-.16h.53c.01.09.08.15.16.15l.07.56c-.09.02-.15.11-.14.2,0,.07.05.12.11.15l-.09.36Z"/>
  </g>
  <g>
    <path class="cls-2" d="M10.33,1.77c-.19.19-.28.41-.28.68s.09.49.28.68c.19.19.41.28.68.28h1.61c.18,0,.34.06.47.19.13.13.19.28.19.46s-.06.34-.19.47-.28.19-.47.19h-2.56v.29h2.56c.26,0,.49-.09.68-.28.19-.19.28-.41.28-.68s-.09-.49-.28-.68c-.19-.19-.41-.28-.68-.28h-1.61c-.18,0-.34-.06-.47-.19-.13-.13-.19-.28-.19-.46s.06-.34.19-.47.28-.19.47-.19h2.56v-.29h-2.56c-.26,0-.49.09-.68.28Z"/>
    <path class="cls-2" d="M17.67,1.64c0,.26-.07.51-.2.73-.13.22-.31.4-.53.53-.23.13-.47.2-.73.2s-.51-.07-.73-.2c-.23-.13-.4-.31-.53-.53-.13-.22-.2-.47-.2-.73v-.15h-.29v.15c0,.3.07.58.21.84.14.26.34.47.58.63.25.16.52.25.81.28v1.62h.3v-1.62c.3-.02.57-.12.81-.28.25-.16.44-.37.58-.63s.21-.54.21-.84v-.15h-.29v.15Z"/>
    <path class="cls-2" d="M20.61,1.49c-.49,0-.9.17-1.24.51s-.51.76-.51,1.24v1.76h.29v-1.76c0-.26.07-.51.2-.73.13-.23.31-.4.53-.53.23-.13.47-.2.73-.2s.51.07.73.2c.23.13.4.31.53.53.13.23.2.47.2.73v1.76h.29v-1.76c0-.49-.17-.9-.51-1.24-.34-.34-.76-.51-1.24-.51Z"/>
    <polygon class="cls-2" points="23.25 5.01 23.61 5.01 25.23 2.13 26.84 5.01 27.2 5.01 25.23 1.49 23.25 5.01"/>
    <path class="cls-2" d="M30.65,1.49h-2.56v3.52h.29v-1.61h2.27c.26,0,.49-.09.68-.28s.28-.41.28-.68-.09-.49-.28-.68c-.19-.19-.41-.28-.68-.28ZM31.18,2.77c-.08.11-.18.19-.28.24-.1.06-.19.08-.26.08h-2.27v-1.32h2.27c.18,0,.34.06.47.19.13.13.19.28.19.47,0,.11-.04.22-.13.33Z"/>
    <path class="cls-2" d="M32.76,1.77c-.19.19-.28.41-.28.68s.09.49.28.68c.19.19.41.28.68.28h1.61c.18,0,.34.06.47.19.13.13.19.28.19.46s-.06.34-.19.47c-.13.13-.28.19-.47.19h-2.56v.29h2.56c.26,0,.49-.09.68-.28.19-.19.28-.41.28-.68s-.09-.49-.28-.68c-.19-.19-.41-.28-.68-.28h-1.61c-.18,0-.34-.06-.47-.19-.13-.13-.19-.28-.19-.46s.06-.34.19-.47.28-.19.47-.19h2.56v-.29h-2.56c-.26,0-.49.09-.68.28Z"/>
  </g>
</svg>